<svg width="175" height="89" viewBox="0 0 175 89" fill="none" xmlns="http://www.w3.org/2000/svg">
<path d="M1.29179 65.8543L1.29114 84.5606C1.29107 86.4599 2.8308 87.9997 4.73017 87.9997H170.271C172.17 87.9997 173.71 86.46 173.71 84.5607V64.2725" stroke="#C0FF2C" stroke-linecap="round"/>
<path d="M173.71 27.8906V4.43876C173.71 2.53943 172.17 0.999723 170.271 0.999723H4.73077C2.83149 0.999723 1.2918 2.53937 1.29174 4.43866L1.29107 27.8906" stroke="#C0FF2C" stroke-linecap="round"/>
<path d="M113.052 63.8058C113.052 63.6159 113.206 63.4619 113.396 63.4619H116.846C117.036 63.4619 117.19 63.6159 117.19 63.8058V73.084C117.19 73.274 117.344 73.4279 117.534 73.4279H123.916C124.106 73.4279 124.26 73.5819 124.26 73.7718V75.9086C124.26 76.0985 124.106 76.2525 123.916 76.2525H113.396C113.206 76.2525 113.052 76.0985 113.052 75.9086V63.8058Z" fill="url(#paint0_linear_7175_48017)"/>
<path d="M125.879 76.2525C125.689 76.2525 125.535 76.0985 125.535 75.9086V63.8058C125.535 63.6159 125.689 63.4619 125.879 63.4619H129.329C129.519 63.4619 129.673 63.6159 129.673 63.8058V75.9086C129.673 76.0985 129.519 76.2525 129.329 76.2525H125.879Z" fill="url(#paint1_linear_7175_48017)"/>
<path d="M145.503 63.4619C145.747 63.4619 145.914 63.71 145.821 63.9363L140.856 76.0391C140.803 76.1682 140.677 76.2525 140.538 76.2525H136.22C136.081 76.2525 135.955 76.1682 135.902 76.0391L130.938 63.9363C130.845 63.71 131.011 63.4619 131.256 63.4619H135.245C135.395 63.4619 135.528 63.5594 135.573 63.7027L138.057 71.6026C138.157 71.9219 138.608 71.9241 138.712 71.6058L141.283 63.6995C141.329 63.5578 141.461 63.4619 141.61 63.4619H145.503Z" fill="url(#paint2_linear_7175_48017)"/>
<path d="M147.061 63.8058C147.061 63.6159 147.215 63.4619 147.405 63.4619H158.541C158.731 63.4619 158.885 63.6159 158.885 63.8058V65.9426C158.885 66.1325 158.731 66.2865 158.541 66.2865H151.543C151.353 66.2865 151.199 66.4405 151.199 66.6304V67.95C151.199 68.1399 151.353 68.2939 151.543 68.2939H156.989C157.179 68.2939 157.333 68.4479 157.333 68.6378V70.7924C157.333 70.9823 157.179 71.1363 156.989 71.1363H151.543C151.353 71.1363 151.199 71.2902 151.199 71.4802V73.084C151.199 73.274 151.353 73.4279 151.543 73.4279H158.541C158.731 73.4279 158.885 73.5819 158.885 73.7718V75.9086C158.885 76.0985 158.731 76.2525 158.541 76.2525H147.405C147.215 76.2525 147.061 76.0985 147.061 75.9086V63.8058Z" fill="url(#paint3_linear_7175_48017)"/>
<path d="M64.5537 63.8058C64.5537 63.6159 64.7077 63.4619 64.8976 63.4619H72.167C72.9861 63.4619 73.6642 63.6988 74.2013 64.1725C74.7384 64.6462 75.0069 65.2443 75.0069 65.9667V69.3953C75.0069 70.1296 74.7384 70.7336 74.2013 71.2073C73.6642 71.6692 72.9861 71.9002 72.167 71.9002H68.2813C68.0914 71.9002 67.9374 72.0541 67.9374 72.2441V75.9086C67.9374 76.0985 67.7834 76.2525 67.5935 76.2525H64.8976C64.7077 76.2525 64.5537 76.0985 64.5537 75.9086V63.8058ZM67.9374 68.7317C67.9374 68.9216 68.0914 69.0756 68.2813 69.0756H71.2002C71.4822 69.0756 71.6232 68.9571 71.6232 68.7203V66.6418C71.6232 66.4049 71.4822 66.2865 71.2002 66.2865H68.2813C68.0914 66.2865 67.9374 66.4405 67.9374 66.6304V68.7317Z" fill="#C0FF2C"/>
<path d="M77.0215 63.8058C77.0215 63.6159 77.1754 63.4619 77.3654 63.4619H80.0613C80.2512 63.4619 80.4052 63.6159 80.4052 63.8058V73.084C80.4052 73.274 80.5591 73.4279 80.7491 73.4279H85.8417C86.0317 73.4279 86.1856 73.5819 86.1856 73.7718V75.9086C86.1856 76.0985 86.0317 76.2525 85.8417 76.2525H77.3654C77.1754 76.2525 77.0215 76.0985 77.0215 75.9086V63.8058Z" fill="#C0FF2C"/>
<path d="M95.3988 73.9031C95.3548 73.7581 95.2211 73.6589 95.0696 73.6589H91.3485C91.1978 73.6589 91.0647 73.7569 91.02 73.9008L90.3647 76.0106C90.32 76.1545 90.1869 76.2525 90.0362 76.2525H87.271C87.0337 76.2525 86.8677 76.018 86.9466 75.7942L91.2156 63.6914C91.2641 63.5539 91.3941 63.4619 91.5399 63.4619H95.0009C95.1467 63.4619 95.2767 63.5539 95.3252 63.6914L99.5942 75.7942C99.6731 76.018 99.5071 76.2525 99.2698 76.2525H96.3655C96.2139 76.2525 96.0802 76.1533 96.0363 76.0083L95.3988 73.9031ZM94.0163 70.8343C94.2468 70.8343 94.412 70.612 94.3457 70.3913L93.5743 67.826C93.4766 67.501 93.0172 67.499 92.9165 67.823L92.1199 70.3884C92.0511 70.6097 92.2165 70.8343 92.4483 70.8343H94.0163Z" fill="#C0FF2C"/>
<path d="M106.097 75.9086C106.097 76.0985 105.943 76.2525 105.753 76.2525H103.057C102.867 76.2525 102.713 76.0985 102.713 75.9086V72.0178C102.713 71.9638 102.7 71.9106 102.676 71.8624L98.6756 63.9612C98.5598 63.7324 98.7261 63.4619 98.9825 63.4619H101.886C102.021 63.4619 102.144 63.5416 102.2 63.6654L104.091 67.894C104.212 68.1653 104.597 68.1653 104.719 67.894L106.61 63.6654C106.665 63.5416 106.788 63.4619 106.924 63.4619H109.827C110.083 63.4619 110.25 63.7324 110.134 63.9612L106.134 71.8624C106.109 71.9106 106.097 71.9638 106.097 72.0178V75.9086Z" fill="#C0FF2C"/>
<path d="M24.0856 63.8058C24.0856 63.6159 24.2396 63.4619 24.4295 63.4619H26.8358C27.0258 63.4619 27.1798 63.6159 27.1798 63.8058V75.9086C27.1798 76.0985 27.0258 76.2525 26.8358 76.2525H23.893C23.7699 76.2525 23.6562 76.1867 23.5948 76.08L19.7928 69.4644C19.6173 69.1591 19.1507 69.2836 19.1507 69.6358V75.9086C19.1507 76.0985 18.9968 76.2525 18.8068 76.2525H16.4005C16.2106 76.2525 16.0566 76.0985 16.0566 75.9086V63.8058C16.0566 63.6159 16.2106 63.4619 16.4005 63.4619H19.3432C19.4664 63.4619 19.5802 63.5278 19.6415 63.6347L23.4434 70.265C23.6187 70.5707 24.0856 70.4463 24.0856 70.0939V63.8058Z" fill="url(#paint4_linear_7175_48017)"/>
<path d="M29.5658 63.8058C29.5658 63.6159 29.7198 63.4619 29.9097 63.4619H38.6217C38.8116 63.4619 38.9656 63.6159 38.9656 63.8058V65.9426C38.9656 66.1325 38.8116 66.2865 38.6217 66.2865H33.1996C33.0097 66.2865 32.8557 66.4405 32.8557 66.6304V67.95C32.8557 68.1399 33.0097 68.2939 33.1996 68.2939H37.388C37.5779 68.2939 37.7319 68.4479 37.7319 68.6378V70.7924C37.7319 70.9823 37.5779 71.1363 37.388 71.1363H33.1996C33.0097 71.1363 32.8557 71.2902 32.8557 71.4802V73.084C32.8557 73.274 33.0097 73.4279 33.1996 73.4279H38.6217C38.8116 73.4279 38.9656 73.5819 38.9656 73.7718V75.9086C38.9656 76.0985 38.8116 76.2525 38.6217 76.2525H29.9097C29.7198 76.2525 29.5658 76.0985 29.5658 75.9086V63.8058Z" fill="url(#paint5_linear_7175_48017)"/>
<path d="M47.9621 76.2525C47.8451 76.2525 47.7362 76.193 47.6729 76.0946L45.6058 72.8801C45.4681 72.6658 45.1533 72.6705 45.0219 72.8886L43.0964 76.086C43.0342 76.1893 42.9224 76.2525 42.8018 76.2525H40.012C39.7422 76.2525 39.5774 75.956 39.72 75.7269L43.3901 69.8292C43.4605 69.7162 43.4592 69.5727 43.387 69.4609L39.8533 63.9925C39.7054 63.7636 39.8697 63.4619 40.1421 63.4619H43.083C43.1998 63.4619 43.3086 63.5212 43.3719 63.6194L45.3226 66.6423C45.4602 66.8556 45.7736 66.8514 45.9054 66.6344L47.7327 63.6272C47.7951 63.5246 47.9065 63.4619 48.0266 63.4619H50.8188C51.0883 63.4619 51.2531 63.7578 51.1112 63.9869L47.556 69.7256C47.4861 69.8385 47.4874 69.9816 47.5594 70.0932L51.1921 75.7221C51.3397 75.951 51.1755 76.2525 50.9031 76.2525H47.9621Z" fill="url(#paint6_linear_7175_48017)"/>
<path d="M61.8896 65.9071C61.8896 66.097 61.7356 66.251 61.5457 66.251H58.7281C58.5382 66.251 58.3842 66.4049 58.3842 66.5949V75.9086C58.3842 76.0985 58.2303 76.2525 58.0403 76.2525H55.4382C55.2483 76.2525 55.0943 76.0985 55.0943 75.9086V66.5949C55.0943 66.4049 54.9403 66.251 54.7504 66.251H51.9329C51.7429 66.251 51.589 66.097 51.589 65.9071V63.8058C51.589 63.6159 51.7429 63.4619 51.9329 63.4619H61.5457C61.7356 63.4619 61.8896 63.6159 61.8896 63.8058V65.9071Z" fill="url(#paint7_linear_7175_48017)"/>
<rect x="137.301" y="41.1543" width="21.5841" height="15.5156" rx="1.37561" fill="#C0FF2C"/>
<rect x="113.052" y="13.0986" width="21.5841" height="43.5711" rx="1.37561" fill="#C0FF2C"/>
<rect x="88.8027" y="13.1367" width="21.5841" height="28.6932" rx="1.37561" fill="url(#paint8_linear_7175_48017)"/>
<rect x="64.5547" y="13.1426" width="21.5841" height="43.466" rx="1.37561" fill="url(#paint9_linear_7175_48017)"/>
<path d="M37.0411 13.0986H16.6323C15.5606 13.0986 14.9005 14.2699 15.4556 15.1867L40.0864 55.8702C40.3357 56.2818 40.7819 56.5333 41.2632 56.5333H61.3315C62.3994 56.5333 63.06 55.3695 62.5126 54.4525L38.2222 13.7691C37.974 13.3533 37.5254 13.0986 37.0411 13.0986Z" fill="#C0FF2C"/>
<path d="M42.3373 15.1762L59.3309 43.8258C60.0445 45.0289 61.8896 44.5229 61.8896 43.124L61.8896 14.4744C61.8896 13.7147 61.2738 13.0988 60.514 13.0988L43.5204 13.0988C42.4543 13.0988 41.7934 14.2592 42.3373 15.1762Z" fill="#C0FF2C"/>
<path d="M35.609 54.3228L18.6154 25.6732C17.9018 24.4701 16.0566 24.9761 16.0566 26.375L16.0566 55.0246C16.0566 55.7843 16.6725 56.4002 17.4323 56.4002L34.4259 56.4002C35.492 56.4002 36.1529 55.2398 35.609 54.3228Z" fill="#C0FF2C"/>
<defs>
<linearGradient id="paint0_linear_7175_48017" x1="135.968" y1="63.4619" x2="135.968" y2="76.2525" gradientUnits="userSpaceOnUse">
<stop stop-color="white"/>
<stop offset="1" stop-color="white" stop-opacity="0.85"/>
</linearGradient>
<linearGradient id="paint1_linear_7175_48017" x1="135.968" y1="63.4619" x2="135.968" y2="76.2525" gradientUnits="userSpaceOnUse">
<stop stop-color="white"/>
<stop offset="1" stop-color="white" stop-opacity="0.85"/>
</linearGradient>
<linearGradient id="paint2_linear_7175_48017" x1="135.968" y1="63.4619" x2="135.968" y2="76.2525" gradientUnits="userSpaceOnUse">
<stop stop-color="white"/>
<stop offset="1" stop-color="white" stop-opacity="0.85"/>
</linearGradient>
<linearGradient id="paint3_linear_7175_48017" x1="135.968" y1="63.4619" x2="135.968" y2="76.2525" gradientUnits="userSpaceOnUse">
<stop stop-color="white"/>
<stop offset="1" stop-color="white" stop-opacity="0.85"/>
</linearGradient>
<linearGradient id="paint4_linear_7175_48017" x1="38.9731" y1="63.4619" x2="38.9731" y2="76.2525" gradientUnits="userSpaceOnUse">
<stop stop-color="white"/>
<stop offset="1" stop-color="white" stop-opacity="0.85"/>
</linearGradient>
<linearGradient id="paint5_linear_7175_48017" x1="38.9731" y1="63.4619" x2="38.9731" y2="76.2525" gradientUnits="userSpaceOnUse">
<stop stop-color="white"/>
<stop offset="1" stop-color="white" stop-opacity="0.85"/>
</linearGradient>
<linearGradient id="paint6_linear_7175_48017" x1="38.9731" y1="63.4619" x2="38.9731" y2="76.2525" gradientUnits="userSpaceOnUse">
<stop stop-color="white"/>
<stop offset="1" stop-color="white" stop-opacity="0.85"/>
</linearGradient>
<linearGradient id="paint7_linear_7175_48017" x1="38.9731" y1="63.4619" x2="38.9731" y2="76.2525" gradientUnits="userSpaceOnUse">
<stop stop-color="white"/>
<stop offset="1" stop-color="white" stop-opacity="0.85"/>
</linearGradient>
<linearGradient id="paint8_linear_7175_48017" x1="99.5948" y1="13.1367" x2="99.5948" y2="41.8299" gradientUnits="userSpaceOnUse">
<stop stop-color="white"/>
<stop offset="1" stop-color="white" stop-opacity="0.85"/>
</linearGradient>
<linearGradient id="paint9_linear_7175_48017" x1="75.3467" y1="13.1426" x2="75.3467" y2="56.6086" gradientUnits="userSpaceOnUse">
<stop stop-color="white"/>
<stop offset="1" stop-color="white" stop-opacity="0.85"/>
</linearGradient>
</defs>
</svg>
