<svg width="20" height="20" viewBox="0 0 20 20" fill="none" xmlns="http://www.w3.org/2000/svg">
<path d="M14.6297 8.14811C14.6297 11.7277 11.7279 14.6296 8.14823 14.6296C4.56861 14.6296 1.66675 11.7277 1.66675 8.14811C1.66675 4.56848 4.56861 1.66663 8.14823 1.66663C11.7279 1.66663 14.6297 4.56848 14.6297 8.14811Z" fill="#B9B7DA"/>
<path d="M18.3334 18.3333L12.7779 12.7777M14.6297 8.14811C14.6297 11.7277 11.7279 14.6296 8.14823 14.6296C4.56861 14.6296 1.66675 11.7277 1.66675 8.14811C1.66675 4.56848 4.56861 1.66663 8.14823 1.66663C11.7279 1.66663 14.6297 4.56848 14.6297 8.14811Z" stroke="#B9B7DA" stroke-width="2" stroke-linecap="round" stroke-linejoin="round"/>
<path d="M3.59484 9.11041C3.22538 9.52092 3.25866 10.1532 3.66917 10.5227C4.07968 10.8921 4.71197 10.8589 5.08143 10.4483L3.59484 9.11041ZM6.58813 7.27938L7.33143 6.61041C7.14179 6.3997 6.87162 6.27938 6.58813 6.27938C6.30465 6.27938 6.03448 6.3997 5.84484 6.61041L6.58813 7.27938ZM8.83813 9.77938L8.09484 10.4483C8.28448 10.6591 8.55465 10.7794 8.83813 10.7794C9.12162 10.7794 9.39179 10.6591 9.58143 10.4483L8.83813 9.77938ZM12.5814 7.11501C12.9509 6.7045 12.9176 6.07221 12.5071 5.70275C12.0966 5.33329 11.4643 5.36657 11.0948 5.77708L12.5814 7.11501ZM5.08143 10.4483L7.33143 7.94834L5.84484 6.61041L3.59484 9.11041L5.08143 10.4483ZM5.84484 7.94834L8.09484 10.4483L9.58143 9.11041L7.33143 6.61041L5.84484 7.94834ZM9.58143 10.4483L12.5814 7.11501L11.0948 5.77708L8.09484 9.11041L9.58143 10.4483Z" fill="#C0FF2C"/>
</svg>
