<svg width="20" height="20" viewBox="0 0 20 20" fill="none" xmlns="http://www.w3.org/2000/svg">
<path d="M14.6295 8.14811C14.6295 11.7277 11.7276 14.6296 8.14799 14.6296C4.56836 14.6296 1.6665 11.7277 1.6665 8.14811C1.6665 4.56848 4.56836 1.66663 8.14799 1.66663C11.7276 1.66663 14.6295 4.56848 14.6295 8.14811Z" fill="#B9B7DA"/>
<path d="M18.3332 18.3333L12.7776 12.7777M14.6295 8.14811C14.6295 11.7277 11.7276 14.6296 8.14799 14.6296C4.56836 14.6296 1.6665 11.7277 1.6665 8.14811C1.6665 4.56848 4.56836 1.66663 8.14799 1.66663C11.7276 1.66663 14.6295 4.56848 14.6295 8.14811Z" stroke="#B9B7DA" stroke-width="2" stroke-linecap="round" stroke-linejoin="round"/>
<path d="M3.59508 9.11041C3.22563 9.52092 3.2589 10.1532 3.66941 10.5227C4.07992 10.8921 4.71221 10.8589 5.08167 10.4483L3.59508 9.11041ZM6.58838 7.27938L7.33167 6.61041C7.14203 6.3997 6.87187 6.27938 6.58838 6.27938C6.30489 6.27938 6.03473 6.3997 5.84508 6.61041L6.58838 7.27938ZM8.83838 9.77938L8.09508 10.4483C8.28473 10.6591 8.55489 10.7794 8.83838 10.7794C9.12186 10.7794 9.39203 10.6591 9.58167 10.4483L8.83838 9.77938ZM12.5817 7.11501C12.9511 6.7045 12.9179 6.07221 12.5073 5.70275C12.0968 5.33329 11.4645 5.36657 11.0951 5.77708L12.5817 7.11501ZM5.08167 10.4483L7.33167 7.94834L5.84508 6.61041L3.59508 9.11041L5.08167 10.4483ZM5.84508 7.94834L8.09508 10.4483L9.58167 9.11041L7.33167 6.61041L5.84508 7.94834ZM9.58167 10.4483L12.5817 7.11501L11.0951 5.77708L8.09508 9.11041L9.58167 10.4483Z" fill="#C0FF2C"/>
</svg>
